<svg xmlns="http://www.w3.org/2000/svg" xmlns:xlink="http://www.w3.org/1999/xlink" width="45" height="43" viewBox="0 0 45 43">
  <defs>
    <clipPath id="clip-path">
      <rect id="Rectangle_22" data-name="Rectangle 22" width="45" height="43" fill="#fff"/>
    </clipPath>
  </defs>
  <g id="Delivery_time" data-name="Delivery time" clip-path="url(#clip-path)">
    <path id="Path_75" data-name="Path 75" d="M0,20.269a1.074,1.074,0,0,1,1.124-.648c2.958.015,5.917,0,8.874.015a.545.545,0,0,0,.6-.4c.364-.871.782-1.72,1.179-2.578.054-.114.112-.225.2-.4H7.105c-.7,0-1.127-.335-1.116-.884.011-.531.429-.863,1.1-.864,1.919,0,3.837.006,5.755-.011a.8.8,0,0,0,.545-.243A17.637,17.637,0,0,1,23,8.186c.247-.06.369-.153.352-.434-.024-.526-.018-1.051,0-1.577a.369.369,0,0,0-.288-.407,2.965,2.965,0,0,1-1.949-3.288A3.008,3.008,0,0,1,24.179,0C26.184-.007,28.191,0,30.2,0A2.989,2.989,0,0,1,33.32,2.45a2.957,2.957,0,0,1-2.061,3.376c-.04.015-.08.033-.134.055V7.966c1.3.49,2.6.859,3.792,1.453a17.22,17.22,0,0,1,9.9,13.632A17.111,17.111,0,0,1,42.226,34.79a.909.909,0,0,1-.979.509.751.751,0,0,1-.687-.692,1.591,1.591,0,0,1,.249-.846,16.191,16.191,0,0,0,2.137-5.46A15.969,15.969,0,1,0,23.28,40.7a15.729,15.729,0,0,0,12.407-1.876c.076-.046.15-.088.226-.135a.88.88,0,0,1,1.266.251.87.87,0,0,1-.352,1.238,16.58,16.58,0,0,1-5.382,2.278c-1.01.222-2.049.317-3.074.472-.114.017-.227.045-.34.067H26.358c-.751-.1-1.511-.155-2.251-.307A17.517,17.517,0,0,1,10.8,31.94a.5.5,0,0,0-.55-.362c-1.83.015-3.659.008-5.49.006a3.285,3.285,0,0,1-.528-.027.858.858,0,0,1-.015-1.692,2.918,2.918,0,0,1,.528-.032H9.579c.152,0,.306-.013.446-.02l-.542-3.339c-1.252,0-2.51,0-3.768,0a.877.877,0,1,1,.01-1.744c1.01-.007,2.02,0,3.03,0h.7c.147-1.139.286-2.218.431-3.352h-.5c-2.708,0-5.417-.009-8.125.008A1.328,1.328,0,0,1,0,20.8ZM27.244,4.2h2.939a2.078,2.078,0,0,0,.6-.07,1.2,1.2,0,0,0,.825-1.29,1.243,1.243,0,0,0-1.328-1.08q-3.049-.015-6.1,0A1.229,1.229,0,1,0,24.217,4.2C25.226,4.2,26.235,4.2,27.244,4.2ZM25.131,7.72h4.193V5.977H25.131Z" fill="#0d4c8a"/>
    <path id="Path_76" data-name="Path 76" d="M0,30.411c.061-.075.122-.152.184-.227A.884.884,0,0,1,1.491,30.1a.857.857,0,0,1-.038,1.27.883.883,0,0,1-1.3-.175C.1,31.11.052,31.016,0,30.929Z" fill="#0d4c8a"/>
    <path id="Path_77" data-name="Path 77" d="M27.283,11.762A13.561,13.561,0,1,1,13.619,25.2,13.594,13.594,0,0,1,27.283,11.762Zm-.052,1.752a11.9,11.9,0,0,0-8.386,3.464A11.908,11.908,0,1,0,31.775,14.4a11.917,11.917,0,0,0-4.544-.893Z" fill="#0d4c8a"/>
    <path id="Path_78" data-name="Path 78" d="M38.3,37.181a.852.852,0,0,1,.532-.794.857.857,0,0,1,.331-.063.882.882,0,0,1,.612.246.86.86,0,0,1-.283,1.418.884.884,0,0,1-.343.063.861.861,0,0,1-.606-.259.852.852,0,0,1-.243-.61Z" fill="#0d4c8a"/>
    <path id="Path_79" data-name="Path 79" d="M27.256,28.038a2.726,2.726,0,0,1-2.221-1.125,2.7,2.7,0,0,1-.369-2.452.51.51,0,0,0-.155-.634c-.52-.49-1.021-1-1.526-1.51-.481-.483-.528-.991-.13-1.376.382-.372.91-.314,1.388.157.52.512,1.042,1.024,1.55,1.549a.418.418,0,0,0,.528.129,2.5,2.5,0,0,1,1.849,0,.421.421,0,0,0,.528-.13q1.948-1.955,3.912-3.9a2.2,2.2,0,0,1,.363-.315.861.861,0,0,1,1.167,1.218,3.129,3.129,0,0,1-.352.386q-1.892,1.887-3.792,3.767a.546.546,0,0,0-.176.668A2.708,2.708,0,0,1,27.256,28.038Zm.952-2.686a.948.948,0,0,0-.262-.693.968.968,0,0,0-1.67.6.972.972,0,0,0,.249.7.968.968,0,0,0,1.683-.611Z" fill="#0d4c8a"/>
    <path id="Path_80" data-name="Path 80" d="M28.122,16.363c0,.159.011.32,0,.477a.88.88,0,0,1-1.416.623.84.84,0,0,1-.308-.536A4.507,4.507,0,0,1,26.4,15.8a.832.832,0,0,1,.915-.695.847.847,0,0,1,.8.821C28.132,16.072,28.123,16.219,28.122,16.363Z" fill="#0d4c8a"/>
    <path id="Path_81" data-name="Path 81" d="M36.229,24.462c.146,0,.292-.008.44,0a.878.878,0,0,1,.849.831.866.866,0,0,1-.214.6.874.874,0,0,1-.568.294,5.154,5.154,0,0,1-.96.007.852.852,0,0,1-.769-.568.883.883,0,0,1,.834-1.168c.13-.005.264,0,.393,0Z" fill="#0d4c8a"/>
    <path id="Path_82" data-name="Path 82" d="M26.36,34.256c0-.145-.008-.29,0-.438a.871.871,0,0,1,.842-.837.849.849,0,0,1,.887.738,4.574,4.574,0,0,1,0,1.082.852.852,0,0,1-.3.539.861.861,0,0,1-.59.193.878.878,0,0,1-.833-.847C26.352,34.546,26.36,34.4,26.36,34.256Z" fill="#0d4c8a"/>
    <path id="Path_83" data-name="Path 83" d="M18.282,24.435c.161.007.323,0,.483.023a.831.831,0,0,1,.756.822.809.809,0,0,1-.7.87,4.749,4.749,0,0,1-1.093.013.848.848,0,0,1-.769-.864.866.866,0,0,1,.836-.847c.159-.013.321,0,.483,0Z" fill="#0d4c8a"/>
  </g>
</svg>
